<svg width="100%" height="100%" viewBox="0 0 284 32" version="1.1" xml:space="preserve" style="fill-rule:evenodd;clip-rule:evenodd;stroke-linejoin:round;stroke-miterlimit:2" id="svg10" xmlns="http://www.w3.org/2000/svg"><g transform="translate(-7.33893 -13.7342)" id="g1"><path d="M46.052 23.23h2.626v4.317h.04c.294-.389.683-.697 1.128-.895.474-.201.97-.344 1.478-.428.117 0 .272-.04.4-.04h.35c1.475-.045 2.902.534 3.928 1.595.972.968 1.518 2.284 1.517 3.656.006.208-.007.416-.04.622-.033.224-.086.445-.156.661-.114.429-.271.846-.467 1.245-.191.386-.44.741-.74 1.05-.488.544-1.102.958-1.789 1.206-.693.276-1.432.421-2.178.428-.707.013-1.409-.119-2.062-.39-.634-.263-1.186-.694-1.595-1.245h-.04v1.322h-2.4V23.23Zm3.443 6.107c-.627.48-.988 1.232-.972 2.023-.012.818.3 1.605.895 2.178.638.606 1.494.928 2.373.894.838.041 1.656-.27 2.256-.856.576-.542.889-1.309.856-2.1.018-.788-.292-1.55-.856-2.1-.6-.586-1.418-.897-2.256-.856-.84-.015-1.654.275-2.295.817h-.001Zm20.498 7.08H67.58v-1.322h-.04c-.337.45-.777.8-1.284 1.05-.523.274-1.088.458-1.672.545-.117 0-.234.04-.35.04h-.35c-.773.008-1.54-.137-2.256-.428-.651-.273-1.235-.685-1.712-1.206-.439-.474-.782-1.029-1.011-1.634-.232-.622-.35-1.281-.35-1.945-.001-.648.104-1.292.311-1.906.247-.604.603-1.158 1.05-1.633.508-.557 1.132-.995 1.828-1.284.704-.287 1.457-.433 2.217-.428.709-.001 1.412.145 2.062.428.636.278 1.187.722 1.595 1.284v-1.4h2.412v9.84l-.037-.001Zm-2.45-4.98c.026-.778-.287-1.531-.856-2.062-.595-.6-1.42-.9-2.256-.817-.972 0-1.75.272-2.333.856-.598.563-.925 1.357-.895 2.178-.013.78.33 1.526.934 2.023.626.54 1.43.832 2.256.817.85.041 1.68-.269 2.295-.856.562-.569.87-1.341.856-2.14l-.001.001Zm4.395-8.207h2.606v13.186h-2.606V23.23Zm7 9.296c.186.581.572 1.077 1.089 1.4.533.342 1.156.518 1.79.506.477.005.951-.074 1.4-.233.385-.118.733-.332 1-.622h2.878c-.3.895-.972 1.634-1.984 2.256-.965.613-2.085.937-3.228.934-1.493.033-2.942-.511-4.045-1.517-1.076-.906-1.69-2.249-1.672-3.656-.02-1.441.591-2.82 1.672-3.773 1.104-1.035 2.572-1.594 4.084-1.556 1.477-.037 2.909.525 3.967 1.556 1.089 1.05 1.634 2.256 1.634 3.617.006.157-.007.314-.04.467-.04.155-.04.3-.078.428 0 .04-.04.078-.04.117v.117h-8.44l.013-.041Zm5.95-2.1c-.192-.58-.595-1.065-1.128-1.362-.547-.342-1.183-.518-1.828-.505h-.156c-.618.044-1.217.231-1.75.545-.512.295-.903.764-1.1 1.322h5.962Zm4.282-3.9h2.447v.894h.04c.32-.369.719-.662 1.167-.856.498-.194 1.023-.312 1.556-.35h.544c.525.037 1.039.169 1.517.389.478.202.914.492 1.284.856.04.04.117.078.155.117.048.044.088.097.117.155.403.489.66 1.083.739 1.712.079.619.118 1.243.117 1.867v5.095h-2.606V31.27c.006-.169-.007-.339-.039-.505-.029-.251-.081-.498-.155-.739-.064-.237-.17-.46-.3-.66-.178-.252-.42-.453-.7-.583-.275-.149-.581-.229-.894-.233h-.4c-.312.036-.615.129-.895.272-.263.14-.489.34-.66.583-.127.209-.231.43-.311.661-.077.252-.116.514-.117.778v5.562H89.17v-9.88Zm22.789 9.88h-2.412v-1.322h-.04c-.337.45-.777.8-1.284 1.05-.523.274-1.088.458-1.672.545-.117 0-.233.04-.35.04h-.35c-.773.008-1.54-.137-2.256-.428-.651-.273-1.235-.685-1.711-1.206-.439-.474-.782-1.029-1.011-1.634-.232-.622-.35-1.281-.35-1.945-.001-.648.104-1.292.311-1.906.247-.604.603-1.158 1.05-1.633.508-.557 1.132-.995 1.828-1.284.704-.287 1.457-.433 2.217-.428.709-.001 1.412.145 2.062.428.636.278 1.187.722 1.595 1.284v-1.4H112v9.84l-.041-.001Zm-2.5-4.98c.026-.778-.287-1.531-.856-2.062-.595-.6-1.42-.9-2.256-.817-.972 0-1.75.272-2.333.856-.598.563-.925 1.357-.895 2.178-.013.78.33 1.526.934 2.023.626.54 1.43.832 2.256.817.85.041 1.68-.269 2.295-.856.577-.558.9-1.337.856-2.14l-.001.001Z" style="fill:#2a506f;fill-rule:nonzero" id="path1"/></g><g transform="matrix(.0642 0 0 .0642 -.364704 -.192784)" id="g2"><path d="M252.209 3.003C116.055 3.003 5.681 113.378 5.681 249.531c0 136.154 110.375 246.528 246.528 246.528 136.154 0 246.529-110.374 246.529-246.528 0-136.153-110.374-246.528-246.529-246.528ZM407.887 405.21c-20.228 20.228-43.775 36.105-69.989 47.193-27.125 11.473-55.956 17.291-85.689 17.291-29.733 0-58.563-5.818-85.688-17.291-26.214-11.088-49.762-26.966-69.99-47.193-20.228-20.229-36.106-43.775-47.193-69.989-11.473-27.126-17.291-55.956-17.291-85.689 0-29.733 5.817-58.563 17.291-85.688 11.087-26.214 26.966-49.762 47.193-69.989 20.228-20.228 43.776-36.106 69.99-47.193 27.125-11.474 55.956-17.291 85.688-17.291 29.733 0 58.563 5.817 85.689 17.291 26.214 11.087 49.762 26.966 69.989 47.193 20.228 20.228 36.106 43.775 47.194 69.989 11.473 27.125 17.291 55.955 17.291 85.688 0 29.733-5.817 58.563-17.291 85.689-11.087 26.214-26.966 49.76-47.194 69.989Z" style="fill:#dfaf37;fill-rule:nonzero" id="path2"/></g><g transform="matrix(.0642 0 0 .0642 -.364704 -.192784)" id="g3"><path d="m399.182 305.834 10.837-50.5c.601-3.463-3.549-5.79-6.081-3.354-.019.019-.09.089-.109.107l-26.075 32.621-26.348-23.097c-.498-.454-.745-1.12-.663-1.789l1.604-13.026c.129-1.079-1.177-1.925-1.918-1.188l-.032.032-6.388 9.477c-1.115 1.654-2.544 3.073-4.206 4.175l-9.423 6.251c-.006.005-.011.011-.017.017-.741.736.064 2.08 1.145 1.957l13.216-1.523c.667-.076 1.331.174 1.78.674l22.876 26.836-32.88 25.527c-.019.02-.037.037-.055.057-2.452 2.519-.183 6.715 3.283 6.135l50.762-10.567 16.598 17.239c2.762 2.777 6.888 3.195 9.667.434 2.778-2.763 2.384-6.892-.378-9.67l-17.195-16.825Z" style="fill:#2a506f;fill-rule:nonzero" id="path3"/></g><g transform="matrix(.0642 0 0 .0642 -.364704 -.192784)" id="g4"><path d="m293.303 364.935 7.185-21.393c1.12-3.52-.329-7.152-3.849-8.272-3.521-1.119-6.801 1.009-7.921 4.528l-6.577 21.711-46.954 12.939c-3.157 1.007-3.296 5.49-.155 6.547.023.008.114.037.137.045l38.642 7.593-7.836 32.098c-.163.614-.612 1.11-1.207 1.333l-11.593 4.335c-.959.362-1.097 1.823-.158 2.122.007.002.034.01.041.013l10.708 1.213c1.869.212 3.678.789 5.324 1.698l9.333 5.157c.007.002.014.005.021.007.938.299 1.711-.961 1.138-1.811l-7.032-10.389c-.355-.524-.435-1.188-.213-1.782l12.476-30.823 35.675 16.375c.023.007.047.014.07.021 3.174.953 5.696-2.773 3.7-5.419l-30.955-37.846Z" style="fill:#2a506f;fill-rule:nonzero" id="path4"/></g><g transform="matrix(.0642 0 0 .0642 -.364704 -.192784)" id="g5"><path d="M140.428 262.553c-.025-.004-.121-.02-.146-.023l-40.227-1.705 2.961-33.651c.069-.646.447-1.217 1.013-1.534l11.047-6.172c.913-.515.827-2.012-.168-2.169-.007-.001-.036-.006-.043-.007l-9.932.387c14.657-67.836 75.119-118.824 147.276-118.824 38.436 0 75.635 14.907 103.475 41.171l-47.123 43.016c-15.639-13.262-35.545-20.67-56.353-20.67-48.061 0-87.162 39.101-87.162 87.161 0 48.062 39.101 87.162 87.162 87.162 2.761 0 5-2.238 5-5s-2.239-5-5-5c-42.547 0-77.162-34.615-77.162-77.162 0-42.547 34.615-77.161 77.162-77.161 17.983 0 35.205 6.255 48.896 17.477l-39.615 36.162c-2.874-1.135-6.003-1.766-9.281-1.766-13.966 0-25.288 11.322-25.288 25.288 0 13.967 11.322 25.288 25.288 25.288 13.967 0 25.289-11.321 25.289-25.288 0-3.442-.69-6.723-1.937-9.714l112.241-102.458c3.999-3.649 4.284-9.907.634-13.905-3.649-3.998-9.907-4.283-13.905-.634l-11.439 10.442c-29.745-28.322-69.646-44.409-110.882-44.409-76.991 0-141.492 54.437-157.075 126.837l-7.151-2.636c-.007-.001-.015-.002-.022-.003-.995-.157-1.581 1.234-.871 2.005l8.712 9.413c.44.477.622 1.135.49 1.77l-7.847 33.08L49.86 248.28c-.025-.004-.05-.008-.075-.011-3.355-.473-5.329 3.683-2.903 6.048l37.133 33.471-3.958 22.729c-.588 3.731 1.438 7.179 5.168 7.767 3.73.588 6.718-2.069 7.307-5.801l3.294-22.959 45.457-20.331c3.036-1.505 2.483-6.058-.855-6.64Z" style="fill:#2a506f;fill-rule:nonzero" id="path5"/></g><g transform="matrix(.0642 0 0 .0642 -.364704 -.192784)" id="g6"><path d="m113.494 313.633-2.677 16.244c26.707 45.643 75.295 77.119 131.589 79.614l3.178-9.888c-58.467-1.541-108.445-36.401-132.09-85.97Z" style="fill:#2a506f;fill-rule:nonzero" id="path6"/></g><g transform="translate(80.2179 -39.0391) scale(1.17269)" id="g10"><g transform="translate(25.267 52.55)" id="g7"><path d="m7.8634599-1.1888291-.5013135-1.3177383H3.0938203l-.5013135 1.3463848q-.2936265.78777831-.5013135 1.06708153-.207687.2721416-.680354.2721416-.4010507 0-.70900044-.29362647-.3079497-.29362646-.3079497-.66603075 0-.21484863.0716162-.44402051.0716162-.2291719.23633349-.6373843L3.3874467-8.6798847q.114586-.2936264.2721416-.7018388.1647173-.415374.3437578-.6875155.1862022-.272142.4798286-.436859.3007881-.171879.737647-.171879.4440205 0 .737647.171879.3007881.164717.4798286.429697.1862021.2649802.3079497.5729299.1289092.3007881.3222729.8092632l2.7429009 6.7748935q.3222732.773455.3222732 1.12437447 0 .36524267-.30795.67319237-.3007881.30078809-.7304853.30078809-.2506568 0-.4296973-.09310108Q8.4865209 0 8.3647733-.15039404q-.1217475-.15755566-.2649799-.47266699-.1360708-.32227294-.2363335-.56576807ZM3.6524267-4.1036088h3.13679L5.2064985-8.4363895Zm9.3602383-6.3953272h2.771547q1.081405 0 1.85486.200525t1.403678.7519702q1.640011 1.4036777 1.640011 4.2683261 0 .945334-.164717 1.7259507t-.508475 1.4108393q-.343758.623061-.88088 1.1172129-.422535.37956591-.923849.60873778-.501313.22917187-1.081404.32227295Q16.550506 0 15.827182 0h-2.771547q-.580091 0-.873718-.1718789-.293626-.17904053-.386727-.49415185-.08594-.32227295-.08594-.83074805v-7.6987426q0-.6875156.30795-.9954656.30795-.307949.995465-.307949zm.823587 1.6829805v7.1258129h1.611364q.52996 0 .830748-.028646.300788-.028647.623061-.1432325.322273-.1145859.558607-.3222729 1.067081-.9023643 1.067081-3.1081435 0-1.5540718-.472667-2.3275268-.465505-.7734551-1.153021-.9811421-.687515-.2148487-1.661496-.2148487zm16.693739 5.6648423q0 .9524956-.494152 1.7116274-.48699.7591318-1.432324 1.18882906-.945334.42969727-2.241587.42969727-1.554072 0-2.563861-.58725293-.716162-.42253564-1.167344-1.1243745-.44402-.7090005-.44402-1.3750312 0-.3867276.26498-.6588692.272141-.2793032.687515-.2793032.336596 0 .565768.2148487.236334.2148486.401051.6373842.200525.5013135.429697.8379097.236334.3365962.658869.5586064.422536.2148486 1.110052.2148486.945334 0 1.532587-.4368588.594414-.4440205.594414-1.1028897 0-.5227983-.322273-.8450712-.315111-.3294346-.823586-.5013135-.501314-.1718789-1.346385-.3652427-1.131536-.26498-1.89783-.6158994-.759131-.358081-1.210313-.9668188-.444021-.6158994-.444021-1.5254253 0-.8665561.472667-1.5397485.472667-.6731924 1.36787-1.0312732.895202-.365243 2.105516-.365243.966819 0 1.668658.243495.709.236334 1.174506.6373845.465505.3938891.680354.830748.214848.4368589.214848.8522329 0 .3795659-.272141.6875156-.26498.3007881-.666031.3007881-.365243 0-.558606-.1790405-.186203-.1862022-.408213-.6015762-.286465-.5944145-.687515-.9238491-.401051-.3365962-1.289092-.3365962-.823587 0-1.332062.3652427-.501313.358081-.501313.8665561 0 .3151114.171879.5442832.171879.2291719.472667.3938892.300788.1647173.608737.2578183.30795.093101 1.016951.2721416.888041.207687 1.604203.4583438.723324.2506567 1.224637.6087378.508475.358081.787778.9095258.286465.5442832.286465 1.3392232zm4.239678.2005253h-2.263073q-.515636 0-.787778-.2363334-.26498-.2434952-.26498-.6230611 0-.3867275.257818-.623061.26498-.2434951.79494-.2434951h2.263073q.529959 0 .787778.2434951.26498.2363335.26498.623061 0 .3795659-.257819.6230611-.257818.2363334-.794939.2363334zM41.70212 0h-3.208406q-.694678 0-.995466-.3079497-.293626-.31511133-.293626-.9954653v-7.8921064q0-.6946772.300788-.9954656.30795-.307949.988304-.307949h3.40177q.75197 0 1.303415.0931t.988303.358081q.372405.22201.65887.5657678.286464.3365962.436858.7519702.150394.4082124.150394.8665561 0 1.5755567-1.575556 2.306042 2.069708.6588691 2.069708 2.5638603 0 .8808794-.451182 1.5898799-.451182.70183884-1.217475 1.03843503-.479829.20052539-1.10289.28646484Q42.532868 0 41.70212 0Zm-.157556-4.6622153h-2.212941v3.0651738h2.284557q2.155648 0 2.155648-1.5540717 0-.79494-.558606-1.153021-.558607-.3580811-1.668658-.3580811zm-2.212941-4.2396796v2.7142544h1.947961q.79494 0 1.224637-.1503941.436859-.150394.666031-.5729297.179041-.3007881.179041-.6731923 0-.79494-.565768-1.0527583-.565768-.26498-1.725951-.26498zm18.376719.04297h-4.189549v2.6856079h3.502033q.48699 0 .723324.2220102.243495.2148487.243495.5800913 0 .3652427-.243495.5800913-.243495.2148487-.723324.2148487h-3.502033v3.4590629q0 .65886916-.300788.9811421-.293626.31511133-.759132.31511133-.472667 0-.773455-.32227295-.293626-.32227295-.293626-.97398048v-8.0783085q0-.4583437.136071-.7448086.136071-.293626.422535-.422536.293627-.13607.744809-.13607h5.013135q.508475 0 .75197.229171.250657.222011.250657.5872534 0 .3724043-.250657.6015762-.243495.2220102-.75197.2220102z" id="text6" style="font-size:14.667px;font-family:ArialRoundedMTBold,'Arial Rounded MT Bold',sans-serif;fill:#dfaf37" aria-label="ADS-B F"/></g><g transform="translate(84.22 52.55)" id="g8"><path d="M1.0097886-1.0097886v-8.4793592q0-.5872532.2578183-.8880412.26498-.300788.7090005-.300788.4440205 0 .7161621.300788.2721416.293627.2721416.8880412v8.4793592q0 .59441458-.2793032.89520266-.2721416.29362647-.7090005.29362647-.4296973 0-.7018389-.30794971-.2649799-.3079497-.2649799-.88087942zm5.9298222-5.6505189v5.6505189q0 .58725296-.2793032.88804104-.2793032.30078809-.7090005.30078809-.4296972 0-.7018388-.30794971-.26498-.3079497-.26498-.88087942v-5.593226q0-.5800913.26498-.8737177.2721416-.2936265.7018388-.2936265.4296973 0 .7090005.2936265.2793032.2936264.2793032.8164248zM5.972792-8.6798847q-.4082124 0-.7018389-.2506567-.2864648-.2506567-.2864648-.7090005 0-.4153741.2936265-.6803541.300788-.272141.6946772-.272141.3795659 0 .6731924.243495.2936264.243495.2936264.7090001 0 .4511822-.2864648.7090005-.2864648.2506567-.680354.2506567zm10.176664 2.3418501v5.67916547q0 .97398045-.207687 1.67581933-.207687.7018388-.666031 1.1601826-.458344.4583437-1.203153.680354-.737647.2220102-1.840536.2220102-1.009789 0-1.804729-.2864648-.7949396-.2793032-1.2246369-.7304854-.4296972-.4440205-.4296972-.9166874 0-.35808109.2434951-.58725296.2434951-.22201025.5872529-.22201025.4296971 0 .7519701.37956591.157556.19336377.322273.3867275.171879.2005254.372404.3365962.207687.1432324.494152.207687.286465.071616.658869.071616.759132 0 1.174506-.2148486.422536-.207687.587253-.58725291.171879-.37956591.200526-.8164248.02865-.42969726.04297-1.38935449-.451182.63022267-1.045596.95965723Q12.575807 0 11.759382 0q-.981142 0-1.718789-.50131347-.7304855-.50131343-1.1243747-1.40367773-.3938891-.9023642-.3938891-2.0840317 0-.8808794.2363334-1.5898799.2434952-.7090004.6875157-1.1959907.4440205-.4869902 1.0241117-.7304853.580091-.2506567 1.274769-.2506567.830748 0 1.439485.3222729.608738.3151113 1.131537.9954653v-.26498q0-.5084751.250656-.7877783.250657-.2793032.644546-.2793032.565768 0 .75197.3724043.186203.3652427.186203 1.0599199zm-5.664843 2.4779209q0 1.1888291.515637 1.7975669.522798.6087377 1.346385.6087377.48699 0 .916687-.2578183.436859-.26498.709001-.7877783.272141-.52996.272141-1.2819302 0-1.1959907-.52996-1.8620215-.522798-.6660307-1.382192-.6660307-.83791 0-1.346385.6373843-.501314.6373842-.501314 1.8118901zm9.553602-5.6290341v2.9004565q.372405-.4296973.723324-.680354.358081-.2506568.787778-.3724043.429698-.1289092.923849-.1289092.744809 0 1.317739.3151113.580091.3151114.909526.9166875.207687.3509195.279303.7877783.07162.4296973.07162.9954654v3.7455277q0 .58725296-.272142.88804104-.26498.30078809-.709.30078809-.966819 0-.966819-1.18882913v-3.3015072q0-.9381724-.279303-1.4394859-.279303-.5084751-1.05992-.5084751-.522798 0-.945334.3007881-.415374.2936265-.623061.8092632-.157556.4368589-.157556 1.5540718v2.5853451q0 .58009134-.26498.88804104-.257818.30078809-.723323.30078809-.966819 0-.966819-1.18882913v-8.4793592q0-.5944142.250656-.8880412.257819-.300788.716163-.300788.465505 0 .723323.300788.26498.300788.26498.8880412zm7.054197 1.8906679h.214848v-1.1745058q0-.472667.02149-.737647.02865-.2721416.143233-.4655054.114585-.2005249.329434-.3222729.214849-.128909.479829-.128909.372404 0 .673192.279303.200525.1862022.250657.4583438.05729.26498.05729.7591318v1.3320615h.716162q.415374 0 .630223.2005254.22201.1933638.22201.5013135 0 .3938891-.315112.5514448-.307949.1575557-.888041.1575557h-.365242v3.5951337q0 .4583437.02865.7090005.03581.2434951.171879.4010508.143233.150394.458344.150394.171879 0 .465505-.057293.293627-.064455.458344-.064455.236334 0 .422536.1933638.193363.1862021.193363.46550537 0 .47266698-.515636.72332372-.515637.25065674-1.482456.25065674-.916687 0-1.389354-.30794971-.472667-.3079497-.623061-.8522329-.143239-.54428282-.143239-1.45380862v-3.7526894h-.257818q-.422536 0-.644546-.2005254-.22201-.2005254-.22201-.5084751t.229172-.5013135q.236333-.2005254.680354-.2005254zm15.705436-1.1458593h-2.320365v7.6271263q0 .65886916-.293627.9811421-.293626.31511133-.759131.31511133-.472667 0-.773455-.32227295-.293627-.32227295-.293627-.97398048v-7.6271263h-2.320365q-.544283 0-.809263-.2363335-.26498-.2434952-.26498-.6373843 0-.408212.272141-.644546.279304-.236333.802102-.236333h6.76057q.551445 0 .816425.243495.272141.243495.272141.637384 0 .3938891-.272141.6373843-.272142.2363335-.816425.2363335z" id="text7" style="font-size:14.667px;font-family:ArialRoundedMTBold,'Arial Rounded MT Bold',sans-serif;fill:#dfaf37" aria-label="light T"/></g><g transform="translate(127.662 52.55)" id="g9"><g id="text8" style="font-size:14.667px;font-family:ArialRoundedMTBold,'Arial Rounded MT Bold',sans-serif;fill:#dfaf37" aria-label="racker"><path d="M2.9505879-2.6426382v1.6328496q0 .59441458-.2793033.89520266-.2793032.29362647-.7090004.29362647-.4225357 0-.6946773-.30078809Q.99546532-.42253564.99546532-1.0097886v-5.4428319q0-1.3177383.95249558-1.3177383.4869902 0 .7018389.3079497.2148486.3079497.2363335.9095259.3509194-.6015762.7161621-.9095259.3724043-.3079497.9883037-.3079497t1.1959907.3079497q.5800913.3079497.5800913.8164248 0 .3580811-.2506568.5944146-.2434951.2291718-.5299599.2291718-.1074243 0-.5227983-.1289092-.4082124-.1360708-.7233238-.1360708-.4296972 0-.7018388.2291719-.2721416.2220103-.4225357.6660308-.150394.4440205-.207687 1.0599199-.057293.6087378-.057293 1.4896171z" id="path11"/><path d="M12.010307-.92384911q-.709.55144482-1.375031.83074804-.6588693.2721416-1.4824557.2721416-.7519702 0-1.3248999-.29362647-.5657681-.30078808-.8737178-.80926317T6.6462529-2.0267387q0-.8021016.5084751-1.3678697.5084751-.565768 1.3965161-.7591318.1862022-.04297.9238491-.1933637.7376468-.1503941 1.2604458-.2721416.529959-.1289092 1.145859-.3079498-.03581-.773455-.315111-1.1315361-.272142-.3652426-1.138698-.3652426-.7448088 0-1.1243747.207687-.3724043.207687-.6445459.623061-.2649799.415374-.3795659.5514448-.1074243.1289092-.472667.1289092-.3294345 0-.5729296-.207687-.2363335-.2148486-.2363335-.5442832 0-.5156367.3652426-1.002627.3652427-.4869902 1.1386978-.8021015.773455-.3151113 1.9264762-.3151113 1.289092 0 2.026739.3079497.737647.3007881 1.038435.9596572.307949.6588691.307949 1.7474355 0 .6875156-.0072 1.1673442 0 .4798286-.0072 1.0670816 0 .5514448.179041 1.1530209.186202.59441459.186202.76629349 0 .30078809-.286465.55144482-.279303.24349512-.637384.24349512-.300788 0-.594415-.27930322-.293626-.28646484-.623061-.82358642zm-.128909-2.82884029q-.429697.1575557-1.253284.3365962-.8164246.1718789-1.1315359.2578183-.3151113.078778-.6015762.322273-.2864648.2363335-.2864648.6660307 0 .4440205.3365962.7591319.3365962.3079497.8808794.3079497.5800913 0 1.0670813-.2506568.494152-.2578183.723324-.6588691.26498-.4440205.26498-1.4609707zm10.913618 1.511102q0 .3652427-.222011.7806167-.214848.415374-.66603.79493995-.444021.37240429-1.124375.60157616-.680354.22917187-1.532587.22917187-1.81189 0-2.82884-1.05275828-1.01695-1.0599199-1.01695-2.8360019 0-1.2031524.465505-2.1270015.465506-.9238491 1.346385-1.4251625.880879-.5084751 2.105517-.5084751.759131 0 1.389354.2220102.637384.2220103 1.074243.5729297.444021.3509194.673193.7519702.236333.3938892.236333.737647 0 .3509194-.26498.5944145-.257818.2434951-.630223.2434951-.243495 0-.408212-.1217475-.157556-.1289092-.358081-.4082124-.358081-.5442832-.75197-.8164248-.386728-.2721416-.988304-.2721416-.866556 0-1.396516.680354-.52996.6731923-.52996 1.8476982 0 .5514448.136071 1.0169502.136071.4583437.393889.7877783.257818.3222729.623061.4941518.365243.1647173.802102.1647173.587252 0 1.002626-.2721416.422536-.2721416.744809-.830748.179041-.3294346.386728-.5156367.207687-.1862022.508475-.1862022.358081 0 .594414.2721416.236334.2721416.236334.5800913zM28.81169-.7161621 27.085739-3.552164l-1.05992 1.0026269v1.55407178q0 .56576806-.300788.87371776-.293626.30078809-.680354.30078809-.451182 0-.709-.30078809-.257818-.30078808-.257818-.88804104v-8.3361268q0-.6517075.250656-.9883036.250657-.343758.716162-.343758.451183 0 .716163.30795.264979.307949.264979.9095257v4.7409931l2.198618-2.306042q.408213-.4296973.623061-.5872529.214849-.1575557.522798-.1575557.365243 0 .608738.2363335.243495.2291719.243495.5800913 0 .4296973-.79494 1.1458594l-1.038435.9524956 2.005254 3.1511132q.222011.3509194.315112.5371216.100262.1790405.100262.34375778 0 .46550537-.257818.73764697-.250657.26497998-.666031.26497998-.358081 0-.551445-.19336377-.193363-.19336377-.522798-.70183886zm8.436254-2.5996684h-3.824306q.0072.6660307.26498 1.1745058.26498.5084751.694678.7662935.436858.2578183.959657.2578183.350919 0 .637384-.078778.293626-.085939.565768-.2578184.272142-.1790405.501314-.3795659.229171-.2005254.594414-.5442832.150394-.1289092.429697-.1289092.300788 0 .486991.1647173.186202.1647173.186202.4655054 0 .26498-.207687.623061-.207687.35091945-.630223.68035402-.415374.32227294-1.052758.53712157-.630223.21484864-1.453809.21484864-1.883507 0-2.929103-1.07424316Q31.425546-1.969446 31.425546-3.8099826q0-.8665561.257818-1.6042031.257819-.7448086.751971-1.2747685.494151-.52996 1.217475-.8092632.723324-.2864648 1.604203-.2864648 1.14586 0 1.962284.4869902.823587.4798286 1.231799 1.2461221.408213.7662934.408213 1.5612333 0 .737647-.422536.9596572-.422536.2148487-1.188829.2148487zm-3.824306-1.1100513h3.545003q-.07162-1.0026269-.544284-1.4967788-.465505-.5013134-1.231798-.5013134-.730486 0-1.203153.5084751-.465505.5013134-.565768 1.4896171zm9.022948 1.7832436v1.6328496q0 .59441458-.279303.89520266-.279303.29362647-.709.29362647-.422536 0-.694678-.30078809-.272141-.30078808-.272141-.88804104v-5.4428319q0-1.3177383.952495-1.3177383.486991 0 .701839.3079497.214849.3079497.236334.9095259.350919-.6015762.716162-.9095259.372404-.3079497.988303-.3079497.6159 0 1.195991.3079497t.580091.8164248q0 .3580811-.250656.5944146-.243495.2291718-.52996.2291718-.107425 0-.522799-.1289092-.408212-.1360708-.723323-.1360708-.429698 0-.701839.2291719-.272142.2220103-.422536.6660308-.150394.4440205-.207687 1.0599199-.05729.6087378-.05729 1.4896171z" id="path12"/></g></g></g></svg>